<svg width="40" height="40" viewBox="0 0 40 40" fill="none" xmlns="http://www.w3.org/2000/svg">
    <path d="M29.5207 28.6707H30C35.5202 28.6645 39.9937 24.191 40 18.6707C39.9967 16.0948 37.9092 14.0074 35.3333 14.004H33.2433C33.3 13.1187 33.3333 12.2294 33.3333 11.3374C33.3333 10.9692 33.0348 10.6707 32.6667 10.6707H0.66666C0.298493 10.6707 -7.12806e-06 10.9692 -7.12806e-06 11.3374C-0.00500713 19.2992 2.29616 27.092 6.62533 33.774L6.77466 34.004H0.66666C0.298493 34.004 -7.12806e-06 34.3025 -7.12806e-06 34.6707C0.00215954 36.5107 1.49333 38.0019 3.33333 38.004H30C31.84 38.0019 33.3312 36.5107 33.3333 34.6707C33.3333 34.3025 33.0348 34.004 32.6667 34.004H26.5587L26.708 33.774C27.7642 32.141 28.704 30.4357 29.5207 28.6707ZM33.1347 15.3374H35.3333C37.1733 15.3395 38.6645 16.8307 38.6667 18.6707C38.6602 23.4103 34.8505 27.2672 30.1113 27.332C30.3007 26.8814 30.482 26.4276 30.6553 25.9707C34.4332 25.6286 37.3281 22.4641 37.3333 18.6707C37.3333 17.5661 36.4379 16.6707 35.3333 16.6707H32.9827C33.0409 16.2263 33.0916 15.7819 33.1347 15.3374ZM32.7873 18.004H35.3333C35.7015 18.004 36 18.3025 36 18.6707C35.9962 21.5342 33.9719 23.9971 31.1633 24.5554C31.8831 22.4197 32.4262 20.2286 32.7873 18.004ZM31.886 35.3374C31.6024 36.1359 30.8473 36.6697 30 36.6707H3.33333C2.48599 36.6697 1.73091 36.1359 1.44733 35.3374H31.886ZM25.588 33.05L24.9707 34.004H8.36266L7.74533 33.05C3.67866 26.7742 1.45858 19.4813 1.33866 12.004H31.9947C31.8747 19.4814 29.6547 26.7742 25.588 33.05Z" fill="#F3EED9"/>
    <path d="M17.4397 5.77902C17.317 5.65619 17.1824 5.54586 17.038 5.44944C16.4384 5.05044 16.2758 4.24102 16.6748 3.64144C16.7225 3.56977 16.7772 3.50302 16.838 3.44211L17.138 3.14211C17.4028 2.88636 17.4102 2.46427 17.1544 2.19944C16.8987 1.93461 16.4766 1.92727 16.2118 2.18302C16.2062 2.18836 16.2008 2.19386 16.1953 2.19944L15.8953 2.49944C14.8649 3.52894 14.8642 5.19877 15.8937 6.22919C16.0163 6.35202 16.1509 6.46236 16.2953 6.55877C16.8949 6.95777 17.0575 7.76719 16.6585 8.36677C16.6108 8.43844 16.5562 8.50519 16.4953 8.56611L16.1953 8.86611C15.9305 9.12186 15.9232 9.54394 16.1789 9.80877C16.4347 10.0736 16.8568 10.0809 17.1216 9.82519C17.1272 9.81986 17.1326 9.81436 17.138 9.80877L17.438 9.50877C18.4684 8.47927 18.4692 6.80944 17.4397 5.77902Z" fill="#F3EED9"/>
    <path d="M21.4397 5.77901C21.317 5.65617 21.1824 5.54584 21.038 5.44942C20.4384 5.05043 20.2758 4.24101 20.6748 3.64143C20.7225 3.56976 20.7772 3.50301 20.838 3.44209L21.138 3.14209C21.4028 2.88626 21.4102 2.46426 21.1543 2.19943C20.8985 1.93459 20.4765 1.92726 20.2117 2.18309C20.2061 2.18843 20.2007 2.19393 20.1953 2.19943L19.8953 2.49943C18.8649 3.52893 18.8643 5.19876 19.8937 6.22917C20.0163 6.35201 20.1509 6.46234 20.2953 6.55876C20.8949 6.95776 21.0575 7.76717 20.6585 8.36676C20.6108 8.43842 20.5562 8.50517 20.4953 8.56609L20.1953 8.86609C19.9305 9.12192 19.9232 9.54392 20.179 9.80875C20.4348 10.0736 20.8568 10.0809 21.1217 9.82509C21.1272 9.81975 21.1327 9.81425 21.138 9.80875L21.438 9.50876C22.4684 8.47926 22.4692 6.80942 21.4397 5.77901Z" fill="#F3EED9"/>
    <path d="M13.4397 5.77902C13.317 5.65619 13.1824 5.54586 13.038 5.44944C12.4384 5.05044 12.2758 4.24102 12.6748 3.64144C12.7225 3.56977 12.7772 3.50302 12.838 3.44211L13.138 3.14211C13.4028 2.88636 13.4102 2.46427 13.1544 2.19944C12.8987 1.93461 12.4766 1.92727 12.2118 2.18302C12.2062 2.18836 12.2008 2.19386 12.1953 2.19944L11.8953 2.49944C10.8649 3.52894 10.8642 5.19877 11.8937 6.22919C12.0163 6.35202 12.1509 6.46236 12.2953 6.55877C12.8949 6.95777 13.0575 7.76719 12.6585 8.36677C12.6108 8.43844 12.5562 8.50519 12.4953 8.56611L12.1953 8.86611C11.9305 9.12186 11.9232 9.54394 12.1789 9.80877C12.4347 10.0736 12.8568 10.0809 13.1216 9.82519C13.1272 9.81986 13.1326 9.81436 13.138 9.80877L13.438 9.50877C14.4684 8.47927 14.4692 6.80944 13.4397 5.77902Z" fill="#F3EED9"/>
    <path d="M6.448 25.0961H6.44933C5.70433 23.1777 5.10833 21.2047 4.66667 19.1947C4.59708 18.8332 4.2475 18.5965 3.886 18.6662C3.52442 18.7357 3.28775 19.0853 3.35742 19.4468C3.35958 19.458 3.362 19.4691 3.36467 19.4801C3.82017 21.5572 4.43533 23.5962 5.20467 25.5787C5.30425 25.8351 5.551 26.004 5.826 26.0041C6.19417 26.0044 6.49292 25.7061 6.49325 25.338C6.49325 25.2552 6.478 25.1732 6.448 25.0961Z" fill="#F3EED9"/>
    <path d="M7.93 28.4481C7.81 28.2068 7.69225 27.9639 7.57666 27.7194C7.42658 27.3833 7.03233 27.2323 6.69608 27.3825C6.35992 27.5326 6.209 27.9269 6.35917 28.2631C6.363 28.2718 6.36708 28.2804 6.37133 28.2889C6.49 28.5409 6.61158 28.7915 6.736 29.0409C6.907 29.3669 7.31 29.4926 7.63608 29.3215C7.95183 29.1559 8.08141 28.771 7.93 28.4481Z" fill="#F3EED9"/>
</svg>
