<svg width="40" height="40" viewBox="0 0 40 40" fill="none" xmlns="http://www.w3.org/2000/svg">
    <path d="M36.6407 32.4228H39.2187C39.6501 32.4228 40 32.073 40 31.6416C40 31.2101 39.6501 30.8603 39.2187 30.8603H36.6407C32.6378 30.8603 29.3813 27.6037 29.3813 23.6009C29.3813 22.3512 30.3981 21.3344 31.6478 21.3344C32.8977 21.3344 33.9146 22.3512 33.9146 23.6009C33.9146 23.9812 34.1883 24.3062 34.563 24.3708C34.9382 24.4352 35.3046 24.2208 35.4319 23.8626C36.3507 21.279 35.692 18.3572 33.7539 16.4193C33.0495 15.7149 32.2407 15.1416 31.3496 14.7155C30.9608 14.5293 30.4941 14.6938 30.3078 15.0832C30.1216 15.4723 30.2863 15.9388 30.6755 16.1251C31.4063 16.4746 32.0703 16.9453 32.6491 17.5241C33.5391 18.4141 34.0836 19.5695 34.2356 20.7809C33.5536 20.1547 32.6446 19.7719 31.6479 19.7719C29.5366 19.7719 27.8188 21.4896 27.8188 23.6009C27.8188 28.4654 31.7763 32.4228 36.6407 32.4228Z" fill="#FF4444"/>
    <path d="M4.00992 30.8604H0.78125C0.349844 30.8604 0 31.2102 0 31.6417C0 32.0731 0.349844 32.4229 0.78125 32.4229H4.00992C7.62742 32.4229 11.0952 31.3218 14.0384 29.2386C15.7254 28.0445 17.1677 26.5823 18.3191 24.9138C18.5262 27.3435 19.5565 29.7156 21.4118 31.5709C21.5644 31.7234 21.7643 31.7997 21.9642 31.7997C22.1641 31.7997 22.3641 31.7234 22.5166 31.5709C22.8217 31.2658 22.8217 30.7711 22.5166 30.4659C18.9486 26.8979 18.9486 21.0924 22.5166 17.5243C23.0955 16.9455 23.7596 16.4746 24.4907 16.125C24.8799 15.9388 25.0446 15.4723 24.8584 15.0831C24.6722 14.6939 24.2059 14.5295 23.8165 14.7154C22.9253 15.1417 22.1162 15.7151 21.4118 16.4195C20.7323 17.0989 20.1641 17.8481 19.7057 18.6436C17.487 17.1675 16.173 14.728 16.173 12.0456C16.173 10.6563 17.3034 9.52587 18.6927 9.52587C20.0822 9.52587 21.2127 10.6563 21.2127 12.0456C21.2127 12.4259 21.4864 12.7509 21.8611 12.8155C22.2362 12.8799 22.6027 12.6656 22.73 12.3074C23.7168 9.53235 23.0094 6.39446 20.928 4.31313C19.155 2.54008 16.7976 1.5636 14.2902 1.5636C11.7827 1.5636 9.42523 2.54008 7.65219 4.31313C6.35914 5.60618 5.41078 7.15204 4.8532 8.83922C3.88891 11.3981 2.30203 13.721 0.258516 15.5609C-0.0621094 15.8495 -0.0880469 16.3436 0.200703 16.6642C0.355 16.8355 0.567812 16.9227 0.781562 16.9227C0.967812 16.9227 1.15477 16.8565 1.30406 16.7221C2.4407 15.6988 3.44695 14.5377 4.30031 13.2756C4.49016 16.0553 5.6632 18.6427 7.65219 20.6316C7.80477 20.7841 8.00469 20.8605 8.20461 20.8605C8.40453 20.8605 8.60445 20.7841 8.75703 20.6316C9.06211 20.3266 9.06211 19.8319 8.75703 19.5267C6.87266 17.6424 5.83492 15.1371 5.83492 12.4724C5.83492 9.80758 6.87266 7.30227 8.75703 5.41797C10.2349 3.94001 12.1999 3.12602 14.2901 3.12602C16.3802 3.12602 18.3452 3.94001 19.823 5.41797C20.8409 6.43571 21.446 7.7711 21.5795 9.1618C20.8402 8.4218 19.8189 7.96329 18.6927 7.96329C16.4416 7.96329 14.6104 9.79454 14.6104 12.0456C14.6104 13.7113 15.0483 15.3502 15.877 16.7849C16.6437 18.1127 17.7287 19.2416 19.0226 20.0629C18.9591 20.2242 18.9006 20.387 18.8453 20.5506C16.5552 26.7174 10.5905 30.8604 4.00992 30.8604Z" fill="#FF4444"/>
    <path d="M39.7713 35.9676C39.4663 35.6627 38.9717 35.6625 38.6663 35.9676C37.457 37.1769 35.4894 37.1768 34.2801 35.9675C32.4615 34.1491 29.5027 34.1491 27.6842 35.9676C26.4749 37.1769 24.5072 37.1768 23.2979 35.9675C22.4171 35.0866 21.2459 34.6015 20 34.6016C18.7542 34.6016 17.583 35.0867 16.702 35.9676C15.4927 37.1769 13.5251 37.1768 12.3158 35.9675C11.4349 35.0866 10.2635 34.6015 9.01783 34.6016C7.77197 34.6016 6.6008 35.0867 5.71986 35.9676C4.51064 37.1768 2.54298 37.1769 1.33361 35.9676C1.02845 35.6626 0.533765 35.6626 0.228687 35.9676C-0.0763916 36.2727 -0.0763916 36.7673 0.228687 37.0725C2.0472 38.8909 5.00611 38.8908 6.8247 37.0724C7.41048 36.4866 8.18931 36.1641 9.01775 36.1641C9.84619 36.1641 10.625 36.4866 11.2108 37.0725C13.0293 38.8909 15.9882 38.8908 17.8068 37.0724C18.3926 36.4866 19.1714 36.1641 19.9999 36.1641C20.8283 36.1641 21.6071 36.4866 22.1929 37.0725C24.0114 38.8909 26.9703 38.8909 28.7889 37.0724C29.9982 35.8631 31.9658 35.8632 33.1751 37.0725C34.0844 37.9817 35.2788 38.4363 36.4731 38.4363C37.6674 38.4363 38.8618 37.9817 39.7711 37.0725C40.0763 36.7674 40.0763 36.2727 39.7713 35.9676Z" fill="#FF4444"/>
    <path d="M27.5829 15.426C27.3774 15.426 27.1759 15.3425 27.0306 15.1971C26.8853 15.0518 26.8016 14.8502 26.8016 14.6448C26.8016 14.4385 26.8852 14.2377 27.0306 14.0917C27.1759 13.9464 27.3774 13.8635 27.5829 13.8635C27.7884 13.8635 27.9899 13.9464 28.1352 14.0917C28.2813 14.2377 28.3641 14.4393 28.3641 14.6448C28.3641 14.8502 28.2813 15.051 28.1352 15.1971C27.9899 15.3425 27.7891 15.426 27.5829 15.426Z" fill="#FF4444"/>
    <path d="M27.5829 15.426C27.3774 15.426 27.1759 15.3425 27.0306 15.1971C26.8853 15.0518 26.8016 14.8502 26.8016 14.6448C26.8016 14.4385 26.8852 14.2377 27.0306 14.0917C27.1759 13.9464 27.3774 13.8635 27.5829 13.8635C27.7884 13.8635 27.9899 13.9464 28.1352 14.0917C28.2813 14.2377 28.3641 14.4393 28.3641 14.6448C28.3641 14.8502 28.2813 15.051 28.1352 15.1971C27.9899 15.3425 27.7891 15.426 27.5829 15.426Z" fill="#FF4444"/>
</svg>
