<svg width="40" height="40" viewBox="0 0 40 40" fill="none" xmlns="http://www.w3.org/2000/svg">
    <path d="M31.9269 7.57782L31.9238 7.57538C31.9113 7.56653 31.8954 7.56195 31.8829 7.55402C31.9156 7.10602 31.7181 6.67389 31.3232 6.4212C29.4052 5.19165 25.6943 3.39661 22.0181 4.86908V2.07611C22.0181 0.931396 21.1887 0 20.1694 0H18.5129C17.4927 0 16.6635 0.931396 16.6635 2.07611V5.13519C15.0061 4.84009 11.3956 4.54803 7.92603 6.62018C7.3999 6.93329 7.18384 7.55554 7.40082 8.13141C7.42249 8.19031 7.46277 8.23456 7.49176 8.28735C7.41577 8.3075 7.33673 8.32459 7.26166 8.34473C7.08557 8.39172 6.91711 8.479 6.77124 8.59894C2.66663 12.0139 0.3125 16.8829 0.3125 21.9562C0.3125 31.9058 9.15253 40 20.0195 40C30.8865 40 39.7266 31.9058 39.7266 21.9562C39.7269 16.2643 36.8839 11.0236 31.9269 7.57782ZM16.6602 6.65314C17.0264 6.72974 17.4033 6.63727 17.6938 6.39954C17.9868 6.1618 18.1537 5.8078 18.1537 5.42999V2.07611C18.1537 1.74683 18.3475 1.49048 18.5129 1.49048H20.1694C20.3354 1.49048 20.5276 1.74683 20.5276 2.07611V5.24231C20.5276 5.66711 20.741 6.05835 21.0986 6.28784C21.4569 6.51886 21.9034 6.5509 22.2922 6.37207C25.0159 5.12695 27.8967 6.18652 29.7397 7.20947C28.002 7.18719 26.5875 7.32513 25.5042 7.59186C25.0137 7.71179 24.6494 8.11127 24.5755 8.60962C24.5004 9.12018 24.7409 9.61884 25.1874 9.88251C26.2708 10.5197 26.9803 11.235 27.4512 11.9379C27.7902 12.4438 28.0087 12.9431 28.1369 13.4012C26.5042 12.0645 24.6732 11.5732 23.4186 11.3974C23.0005 11.3385 22.6456 11.3156 22.384 11.3065C22.0413 11.2955 21.7163 11.4212 21.4706 11.6626C21.2268 11.9019 21.0898 12.2366 21.095 12.58C21.1545 16.4072 19.8318 18.9746 19.0628 20.1361C18.3289 18.5803 18.1024 15.2328 18.1433 12.4826C18.1537 11.8475 17.6807 11.3074 17.041 11.2247C16.8497 11.2 16.6559 11.188 16.4615 11.188C16.4243 11.188 16.3861 11.1948 16.3495 11.1963C16.2482 11.1984 16.1462 11.2097 16.044 11.218C15.8905 11.2305 15.737 11.2454 15.5829 11.2717C15.4828 11.2878 15.383 11.3095 15.2832 11.3312C15.1245 11.3657 14.9664 11.4044 14.8087 11.4496C14.7125 11.4774 14.617 11.507 14.5215 11.539C14.3585 11.5933 14.1968 11.6525 14.035 11.7172C13.9441 11.7538 13.8538 11.7896 13.7637 11.8289C13.5983 11.9012 13.4344 11.9781 13.2721 12.059C13.187 12.1008 13.1021 12.1417 13.0179 12.1857C12.8503 12.2739 12.6862 12.3669 12.5223 12.4622C12.4457 12.507 12.3688 12.5488 12.2928 12.5949C12.1149 12.7029 11.9418 12.8146 11.7706 12.9279C11.7145 12.9651 11.6565 13.0002 11.6013 13.0374C11.3754 13.1903 11.1557 13.3459 10.9433 13.5031C11.21 13.0197 11.4948 12.5888 11.7847 12.2012C11.8005 12.1805 11.8155 12.1567 11.8301 12.1365C12.135 11.7349 12.4445 11.384 12.7454 11.0791C12.7469 11.0776 12.7484 11.076 12.7499 11.0745C13.147 10.6723 13.5233 10.3586 13.855 10.1096C13.9026 10.0739 13.9532 10.033 13.9987 10.0003C14.0256 9.98077 14.0472 9.96735 14.0732 9.94873C14.165 9.88403 14.2557 9.82056 14.3362 9.76746C14.7269 9.51202 14.9414 9.06494 14.8929 8.59924C14.8459 8.13263 14.5459 7.73621 14.1098 7.56409C14.0717 7.54913 14.025 7.54181 13.9853 7.52777C13.8214 7.46948 13.6462 7.41821 13.4616 7.37274C13.3481 7.34436 13.2333 7.3175 13.1128 7.29523C13.0957 7.29218 13.0807 7.28699 13.0627 7.28394C13.0518 7.2818 13.0414 7.28485 13.0301 7.28333C12.1799 7.13409 11.1768 7.11182 10.0076 7.23694C12.8183 6.07178 15.5225 6.41754 16.6602 6.65314V6.65314ZM20.0189 38.5104C9.97467 38.5104 1.80206 31.0846 1.80206 21.9568C1.80206 17.3404 3.94897 12.9007 7.68829 9.77386C9.29565 9.34631 11.0254 9.0033 12.7771 8.75458C12.836 8.76495 12.901 8.77075 12.9575 8.78296C13.0045 8.79242 13.053 8.80157 13.0975 8.81195C13.0307 8.86017 12.9559 8.9212 12.8851 8.97491C12.8076 9.03473 12.7338 9.08844 12.6529 9.15405C12.5818 9.21143 12.5067 9.27979 12.4338 9.34174C12.3434 9.41864 12.2565 9.48914 12.1631 9.57367C12.0752 9.65332 11.9843 9.74579 11.8942 9.83276C11.8115 9.91272 11.731 9.98566 11.6467 10.0714C11.4963 10.2249 11.3443 10.394 11.192 10.5676C11.1667 10.5966 11.1423 10.6204 11.1169 10.6497C10.4028 11.4798 9.68597 12.5388 9.10553 13.8629C8.87238 14.397 9.02832 14.9933 9.49371 15.3452C9.9588 15.6967 10.5975 15.6836 11.0468 15.3137C12.3203 14.2654 14.6997 12.5543 16.6513 12.6834C16.6318 14.7797 16.7429 19.3265 17.9889 21.2671C18.2126 21.615 18.5931 21.8304 19.0045 21.8423H19.0417C19.4397 21.8423 19.8145 21.6525 20.051 21.3281C20.8237 20.2664 22.594 17.337 22.5882 12.8079C23.6768 12.8793 25.8908 13.2452 27.6508 14.9643C28.0356 15.3391 28.5944 15.4279 29.072 15.1886C29.5547 14.9487 29.8239 14.447 29.7562 13.9099C29.7128 13.5709 29.6362 13.1982 29.5148 12.8079C29.5093 12.7905 29.5065 12.775 29.501 12.7573C29.3863 12.3972 29.2224 12.0209 29.0152 11.64C28.9868 11.5872 28.9661 11.5356 28.9355 11.4828C28.8425 11.3211 28.7286 11.1588 28.6151 10.997C28.5757 10.9402 28.5452 10.8835 28.5034 10.827C28.4067 10.6973 28.2889 10.5685 28.1778 10.4395C28.1018 10.351 28.0368 10.2615 27.9541 10.1736C27.8574 10.0705 27.738 9.97009 27.6306 9.86877C27.5128 9.75708 27.4057 9.64386 27.2751 9.53339C27.1628 9.43878 27.0264 9.34784 26.9034 9.25476C26.7551 9.14215 26.6177 9.0274 26.4539 8.91785C26.8265 8.85376 27.2916 8.79578 27.858 8.75458C27.8802 8.75336 27.9034 8.75183 27.9263 8.75031C28.0383 8.74298 28.1552 8.73627 28.2745 8.73016C28.3386 8.72711 28.4033 8.72406 28.4698 8.72101C28.562 8.71735 28.6554 8.71368 28.7521 8.71063C28.8699 8.70697 28.9914 8.70483 29.1159 8.70331C29.1733 8.70239 29.2297 8.70117 29.2886 8.70026C29.516 8.69812 29.7568 8.69934 30.0064 8.70331L30.274 8.72711C30.4944 8.75702 30.7159 8.78296 30.9372 8.80981L31.1218 8.83148C35.6436 11.9946 38.2364 16.7752 38.2364 21.955C38.2364 31.0846 30.0638 38.5104 20.0189 38.5104V38.5104Z" fill="#F3EED9"/>
    <path d="M4.82696 22.8839C4.76715 22.4768 4.39545 22.1899 3.98102 22.2549C3.57422 22.3144 3.29254 22.6932 3.35205 23.1006C3.51532 24.2093 3.88061 25.2496 4.43786 26.1902C4.57702 26.4248 4.82513 26.5551 5.07934 26.5551C5.20843 26.5551 5.33935 26.5216 5.45868 26.4508C5.81359 26.2414 5.92956 25.7831 5.72021 25.43C5.26794 24.6686 4.9588 23.7878 4.82696 22.8839V22.8839Z" fill="#F3EED9"/>
    <path d="M4.13088 20.6237C4.14797 20.625 4.16597 20.6259 4.18306 20.6259C4.57125 20.6259 4.8984 20.3256 4.92525 19.9322C4.98476 19.0832 5.15841 18.2599 5.44222 17.4841C5.58321 17.0968 5.38485 16.669 4.99819 16.5283C4.60909 16.3882 4.18276 16.5857 4.04207 16.9723C3.71126 17.8799 3.50771 18.8406 3.43782 19.8294C3.41036 20.2392 3.7195 20.5954 4.13088 20.6237Z" fill="#F3EED9"/>
</svg>
