<svg width="40" height="40" viewBox="0 0 40 40" fill="none" xmlns="http://www.w3.org/2000/svg">
    <path d="M37.0627 14.0656C37.0851 13.8624 37.0963 13.6587 37.0963 13.4556C37.0963 10.3594 34.5777 7.83993 31.4804 7.83657C30.5575 5.63603 29.0466 3.74954 27.0841 2.35548C24.9147 0.814619 22.3571 0.000244141 19.6876 0.000244141C16.7272 0.000244141 13.8409 1.0354 11.5604 2.91509C9.47914 4.63048 7.98711 6.97157 7.31211 9.56087C3.25977 9.67978 0 13.0115 0 17.0899C0 21.2432 3.38094 24.6222 7.53672 24.6222H16.4843C16.9157 24.6222 17.2655 24.2724 17.2655 23.8409C17.2655 23.4095 16.9157 23.0597 16.4843 23.0597H7.53672C4.2425 23.0597 1.5625 20.3817 1.5625 17.0899C1.5625 13.7981 4.2425 11.1199 7.53672 11.1199C9.00234 11.1199 10.4119 11.6554 11.5057 12.6277C11.6545 12.7601 11.8398 12.8251 12.0245 12.8251C12.2398 12.8251 12.4543 12.7366 12.6087 12.5629C12.8954 12.2404 12.8663 11.7467 12.5438 11.4599C11.5073 10.5385 10.2463 9.92813 8.89953 9.68126C10.2654 4.92962 14.6727 1.56267 19.6876 1.56267C24.3749 1.56267 28.61 4.51743 30.2261 8.91532C30.3496 9.25142 30.6859 9.45978 31.0416 9.42282C31.1905 9.40704 31.3362 9.39907 31.4742 9.39907C33.7127 9.39907 35.5338 11.2188 35.5338 13.4556C35.5338 13.7531 35.5002 14.0534 35.434 14.3482C35.3502 14.7211 35.5485 15.0999 35.9027 15.2435C37.4426 15.8678 38.4375 17.3436 38.4375 19.0031C38.4375 21.2399 36.6163 23.0597 34.3779 23.0597H23.5154C23.084 23.0597 22.7341 23.4095 22.7341 23.8409C22.7341 24.2724 23.084 24.6222 23.5154 24.6222H34.3779C37.478 24.6222 40 22.1015 40 19.0031C40 16.9173 38.8656 15.0412 37.0627 14.0656Z" fill="#FF4444"/>
    <path d="M5.98962 32.5128C5.55822 32.5128 5.20837 32.163 5.20837 31.7316V27.3046C5.20837 26.8732 5.55822 26.5233 5.98962 26.5233C6.42103 26.5233 6.77087 26.8732 6.77087 27.3046V31.7316C6.77087 32.1631 6.42103 32.5128 5.98962 32.5128Z" fill="#FF4444"/>
    <path d="M11.6146 34.1634C11.1832 34.1634 10.8334 33.8136 10.8334 33.3821V27.3046C10.8334 26.8732 11.1832 26.5233 11.6146 26.5233C12.046 26.5233 12.3959 26.8732 12.3959 27.3046V33.3821C12.3959 33.8136 12.046 34.1634 11.6146 34.1634Z" fill="#FF4444"/>
    <path d="M17.2396 29.7069C16.8082 29.7069 16.4584 29.3571 16.4584 28.9257V27.3046C16.4584 26.8732 16.8082 26.5233 17.2396 26.5233C17.671 26.5233 18.0209 26.8732 18.0209 27.3046V28.9257C18.0209 29.3571 17.671 29.7069 17.2396 29.7069Z" fill="#FF4444"/>
    <path d="M22.8646 33.4636C22.4332 33.4636 22.0834 33.1138 22.0834 32.6824V27.3046C22.0834 26.8732 22.4332 26.5233 22.8646 26.5233C23.296 26.5233 23.6459 26.8732 23.6459 27.3046V32.6824C23.6459 33.1138 23.296 33.4636 22.8646 33.4636Z" fill="#FF4444"/>
    <path d="M28.4896 32.2263C28.0582 32.2263 27.7084 31.8764 27.7084 31.445V27.3046C27.7084 26.8732 28.0582 26.5233 28.4896 26.5233C28.921 26.5233 29.2709 26.8732 29.2709 27.3046V31.445C29.2709 31.8765 28.921 32.2263 28.4896 32.2263Z" fill="#FF4444"/>
    <path d="M28.4896 39.9997C28.0582 39.9997 27.7084 39.6498 27.7084 39.2184V34.8566C27.7084 34.4252 28.0582 34.0753 28.4896 34.0753C28.921 34.0753 29.2709 34.4252 29.2709 34.8566V39.2184C29.2709 39.6499 28.921 39.9997 28.4896 39.9997Z" fill="#FF4444"/>
    <path d="M11.6146 39.9997C11.1832 39.9997 10.8334 39.6499 10.8334 39.2185V36.7937C10.8334 36.3623 11.1832 36.0125 11.6146 36.0125C12.046 36.0125 12.3959 36.3623 12.3959 36.7937V39.2185C12.3959 39.65 12.046 39.9997 11.6146 39.9997Z" fill="#FF4444"/>
    <path d="M17.2396 35.7814C16.8082 35.7814 16.4584 35.4316 16.4584 35.0002V32.3373C16.4584 31.9059 16.8082 31.556 17.2396 31.556C17.671 31.556 18.0209 31.9059 18.0209 32.3373V35.0002C18.0209 35.4316 17.671 35.7814 17.2396 35.7814Z" fill="#FF4444"/>
    <path d="M22.8646 38.1511C22.4332 38.1511 22.0834 37.8013 22.0834 37.3699V36.0939C22.0834 35.6625 22.4332 35.3126 22.8646 35.3126C23.296 35.3126 23.6459 35.6625 23.6459 36.0939V37.3699C23.6459 37.8013 23.296 38.1511 22.8646 38.1511Z" fill="#FF4444"/>
    <path d="M34.1146 32.5128C33.6832 32.5128 33.3334 32.163 33.3334 31.7316V27.3046C33.3334 26.8732 33.6832 26.5233 34.1146 26.5233C34.546 26.5233 34.8959 26.8732 34.8959 27.3046V31.7316C34.8959 32.1631 34.546 32.5128 34.1146 32.5128Z" fill="#FF4444"/>
    <path d="M20.0002 24.6224C19.7948 24.6224 19.5932 24.5388 19.4479 24.3935C19.3026 24.2482 19.219 24.0467 19.219 23.8412C19.219 23.6349 19.3025 23.4342 19.4479 23.2888C19.5932 23.1436 19.7948 23.0599 20.0002 23.0599C20.2057 23.0599 20.4073 23.1435 20.5525 23.2888C20.6978 23.4342 20.7815 23.6357 20.7815 23.8412C20.7815 24.0467 20.6979 24.2474 20.5525 24.3935C20.4065 24.5388 20.2057 24.6224 20.0002 24.6224Z" fill="#FF4444"/>
</svg>
