<svg width="40" height="40" viewBox="0 0 40 40" fill="none" xmlns="http://www.w3.org/2000/svg">
    <path d="M33.1035 35.5215H0C0 37.045 1.23509 38.2801 2.75862 38.2801H30.3448C31.8684 38.2801 33.1035 37.045 33.1035 35.5215Z" fill="#FF4444"/>
    <path d="M16.5518 10.0042C16.1709 10.0042 15.8622 9.69536 15.8623 9.31442C15.8623 9.13157 15.935 8.95631 16.0642 8.827L16.3745 8.51666C16.9012 7.98968 16.9008 7.13554 16.3738 6.6089C16.3108 6.54597 16.2418 6.48942 16.1676 6.44011C14.9144 5.60364 14.5764 3.90959 15.4129 2.65632C15.5125 2.50692 15.6268 2.36778 15.7538 2.2408L16.0642 1.93046C16.3288 1.65649 16.7654 1.6489 17.0394 1.91347C17.3133 2.17804 17.3209 2.61468 17.0563 2.88865C17.0508 2.89442 17.0451 2.90002 17.0394 2.90563L16.729 3.21597C16.2024 3.74295 16.2027 4.59709 16.7297 5.12373C16.7927 5.18666 16.8618 5.24321 16.9359 5.29252C18.1892 6.12899 18.5271 7.82304 17.6907 9.07631C17.591 9.22571 17.4768 9.36485 17.3497 9.49183L17.0394 9.80217C16.9101 9.93157 16.7347 10.0042 16.5518 10.0042Z" fill="#FF4444"/>
    <path d="M20.6897 10.0042C20.3089 10.0041 20.0001 9.69535 20.0002 9.3144C20.0002 9.13156 20.0729 8.9563 20.2021 8.82699L20.5125 8.51665C21.0391 7.98966 21.0388 7.13553 20.5118 6.60889C20.4488 6.54596 20.3797 6.48941 20.3056 6.4401C19.0523 5.60363 18.7144 3.90958 19.5508 2.65631C19.6505 2.50691 19.7647 2.36777 19.8918 2.24079L20.2021 1.93044C20.4668 1.65648 20.9033 1.64889 21.1773 1.91355C21.4513 2.1782 21.4589 2.61475 21.1942 2.88872C21.1887 2.8945 21.183 2.9001 21.1773 2.90562L20.867 3.21596C20.3403 3.74294 20.3407 4.59708 20.8677 5.12372C20.9307 5.18665 20.9997 5.2432 21.0739 5.29251C22.3271 6.12898 22.6651 7.82303 21.8286 9.0763C21.729 9.2257 21.6147 9.36484 21.4877 9.49182L21.1773 9.80216C21.048 9.93156 20.8727 10.0042 20.6897 10.0042Z" fill="#FF4444"/>
    <path d="M12.4138 10.0042C12.033 10.0042 11.7243 9.69536 11.7244 9.31442C11.7244 9.13157 11.797 8.95631 11.9262 8.827L12.2366 8.51666C12.7632 7.98968 12.7629 7.13554 12.2359 6.6089C12.1729 6.54597 12.1038 6.48942 12.0297 6.44011C10.7764 5.60364 10.4385 3.90959 11.275 2.65632C11.3746 2.50692 11.4888 2.36778 11.6159 2.2408L11.9262 1.93046C12.1908 1.65649 12.6275 1.6489 12.9014 1.91347C13.1754 2.17804 13.183 2.61468 12.9184 2.88865C12.9129 2.89442 12.9072 2.90002 12.9014 2.90563L12.5911 3.21597C12.0644 3.74295 12.0648 4.59709 12.5918 5.12373C12.6548 5.18666 12.7238 5.24321 12.798 5.29252C14.0513 6.12899 14.3892 7.82304 13.5527 9.07631C13.4531 9.22571 13.3388 9.36485 13.2118 9.49183L12.9014 9.80217C12.7721 9.93157 12.5968 10.0042 12.4138 10.0042Z" fill="#FF4444"/>
    <path d="M5.33865 26.5559C5.05417 26.5558 4.79891 26.3811 4.69589 26.1159C3.90003 24.065 3.26365 21.9558 2.79244 19.8069C2.69192 19.4395 2.9083 19.0602 3.27572 18.9598C3.64313 18.8593 4.02244 19.0756 4.12287 19.443C4.12908 19.4657 4.13408 19.4887 4.13796 19.5118C4.59442 21.5911 5.21046 23.632 5.98072 25.6166C6.11856 25.9717 5.94253 26.3712 5.58753 26.5091C5.50813 26.54 5.42373 26.5558 5.33865 26.5559Z" fill="#F3EED9"/>
    <path d="M6.89663 30.08C6.6337 30.0812 6.39292 29.9327 6.27594 29.6972C6.14766 29.4393 6.02189 29.18 5.8987 28.9193C5.7287 28.5784 5.86723 28.1643 6.20809 27.9944C6.54896 27.8244 6.96309 27.9629 7.13301 28.3038C7.1374 28.3126 7.14154 28.3215 7.14559 28.3304C7.26516 28.5828 7.38697 28.8341 7.51111 29.0842C7.68025 29.4255 7.54068 29.8392 7.19939 30.0083C7.10533 30.0552 7.00171 30.0797 6.89663 30.08Z" fill="#F3EED9"/>
    <path fill-rule="evenodd" clip-rule="evenodd" d="M32.4764 14.8318H31.0345V17.5904H32.1339C32.3052 16.5199 32.4202 15.5709 32.4764 14.8318ZM32.2808 25.5909C35.1473 24.7542 37.2414 22.1065 37.2414 18.9697C37.2414 18.2079 36.6239 17.5904 35.8621 17.5904H34.1583C34.321 16.5296 34.43 15.5833 34.4816 14.8318H35.8621C38.1474 14.8318 40 16.6844 40 18.9697C40 24.0457 36.083 28.2069 31.1067 28.5953C31.5393 27.6729 31.9308 26.6516 32.2808 25.5909ZM30.069 25.8663H28.9655L26.2069 28.6249H28.85C29.2888 27.8305 29.6966 26.8899 30.069 25.8663Z" fill="#FF4444"/>
    <path fill-rule="evenodd" clip-rule="evenodd" d="M26.8146 33.5C30.9227 26.8605 33.1035 19.2024 33.1035 11.3835H0C0 19.2025 2.18077 26.8605 6.28888 33.5H26.8146ZM25.5311 35.5H7.57232L7.58621 35.5215V36.2111H25.5172V35.5215L25.5311 35.5Z" fill="#FF4444"/>
</svg>
