<svg width="40" height="40" viewBox="0 0 40 40" fill="none" xmlns="http://www.w3.org/2000/svg">
    <rect x="9" y="2" width="22" height="36" fill="#FF4444"/>
    <path d="M23.6666 3.33337H19.6666C19.114 3.33337 18.6666 3.78072 18.6666 4.33337C18.6666 4.88603 19.114 5.33337 19.6666 5.33337H23.6666C24.2193 5.33337 24.6666 4.88603 24.6666 4.33337C24.6666 3.78072 24.2193 3.33337 23.6666 3.33337Z" fill="#F3EED9"/>
    <path d="M28 0H12C9.79469 0 8 1.79469 8 4V36C8 38.2053 9.79469 40 12 40H28C30.2053 40 32 38.2053 32 36V4C32 1.79469 30.2053 0 28 0ZM30 36C30 37.1047 29.1047 38 28 38H12C10.8953 38 10 37.1047 10 36V4C10 2.89531 10.8953 2 12 2H28C29.1047 2 30 2.89531 30 4V36Z" fill="#FF4444"/>
    <path d="M20 36.6666C21.1046 36.6666 22 35.7712 22 34.6666C22 33.5621 21.1046 32.6666 20 32.6666C18.8954 32.6666 18 33.5621 18 34.6666C18 35.7712 18.8954 36.6666 20 36.6666Z" fill="#F3EED9"/>
    <path d="M16.3334 5.33337C16.8857 5.33337 17.3334 4.88566 17.3334 4.33337C17.3334 3.78109 16.8857 3.33337 16.3334 3.33337C15.7811 3.33337 15.3334 3.78109 15.3334 4.33337C15.3334 4.88566 15.7811 5.33337 16.3334 5.33337Z" fill="#F3EED9"/>
</svg>
