<svg width="30" height="30" viewBox="0 0 30 30" fill="none" xmlns="http://www.w3.org/2000/svg">
    <path d="M27.2382 11.2969H26.6013C26.3944 10.6494 26.1334 10.0205 25.8207 9.41619L26.2717 8.96514C27.3654 7.87266 27.3361 6.12187 26.2721 5.05898L24.9414 3.72832C23.8791 2.66467 22.128 2.63385 21.0352 3.72791L20.5838 4.17932C19.9795 3.86666 19.3505 3.60557 18.7031 3.39867V2.7617C18.7031 1.23891 17.4642 0 15.9414 0H14.0586C12.5358 0 11.2969 1.23891 11.2969 2.7617V3.39867C10.6495 3.60551 10.0205 3.8666 9.41619 4.17932L8.96519 3.72832C7.87459 2.63643 6.12352 2.66203 5.0591 3.72797L3.72826 5.05869C2.66467 6.12111 2.63391 7.87201 3.72791 8.96484L4.17932 9.41625C3.8666 10.0205 3.60557 10.6494 3.39867 11.2969H2.76176C1.23896 11.2969 0 12.5358 0 14.0586V15.9414C0 17.4642 1.23896 18.7031 2.76176 18.7031H3.39867C3.60557 19.3506 3.8666 19.9795 4.17932 20.5838L3.72826 21.0349C2.63461 22.1273 2.66391 23.8781 3.72791 24.941L5.05863 26.2717C6.12088 27.3353 7.87201 27.3662 8.96478 26.2721L9.41619 25.8207C10.0205 26.1333 10.6495 26.3944 11.2969 26.6013V27.2383C11.2969 28.7611 12.5358 30 14.0586 30H15.9414C17.4642 30 18.7032 28.7611 18.7032 27.2383V26.6013C19.3506 26.3945 19.9796 26.1334 20.5839 25.8207L21.0349 26.2717C22.1255 27.3636 23.8765 27.338 24.941 26.272L26.2718 24.9412C27.3354 23.8788 27.3662 22.1279 26.2721 21.0351L25.8207 20.5837C26.1335 19.9794 26.3945 19.3505 26.6014 18.703H27.2383C28.7611 18.703 30.0001 17.4641 30.0001 15.9413V14.0585C30 12.5358 28.761 11.2969 27.2382 11.2969ZM15 21.5273C11.4008 21.5273 8.47266 18.5992 8.47266 15C8.47266 11.4008 11.4008 8.47266 15 8.47266C18.5992 8.47266 21.5273 11.4008 21.5273 15C21.5273 18.5992 18.5992 21.5273 15 21.5273Z" fill="#FF4444"/>
</svg>
