<svg width="30" height="30" viewBox="0 0 30 30" fill="none" xmlns="http://www.w3.org/2000/svg">
    <path d="M15.9414 30H14.0586C12.5358 30 11.2968 28.7611 11.2968 27.2383V26.6013C10.6494 26.3945 10.0204 26.1334 9.41613 25.8207L8.96473 26.2721C7.87143 27.3667 6.12012 27.3346 5.05857 26.2717L3.72785 24.941C2.66443 23.8788 2.63385 22.128 3.7282 21.0349L4.17926 20.5838C3.86654 19.9795 3.60551 19.3506 3.39861 18.7031H2.7617C1.23896 18.7031 0 17.4642 0 15.9414V14.0586C0 12.5358 1.23896 11.2969 2.76176 11.2969H3.39867C3.60557 10.6494 3.8666 10.0205 4.17932 9.41619L3.72791 8.96484C2.6342 7.8723 2.66438 6.12141 3.72826 5.05869L5.0591 3.72791C6.12311 2.66244 7.874 2.63584 8.96519 3.72826L9.41619 4.17926C10.0205 3.8666 10.6495 3.60551 11.2969 3.39861V2.7617C11.2969 1.23891 12.5358 0 14.0586 0H15.9414C17.4642 0 18.7031 1.23891 18.7031 2.7617V3.39867C19.3505 3.60551 19.9795 3.8666 20.5838 4.17932L21.0352 3.72791C22.1285 2.63326 23.8798 2.66537 24.9414 3.72832L26.2721 5.05898C27.3355 6.12123 27.3661 7.87195 26.2717 8.96514L25.8207 9.41619C26.1334 10.0205 26.3944 10.6494 26.6013 11.2969H27.2382C28.761 11.2969 30 12.5358 30 14.0586V15.9414C30 17.4642 28.761 18.7031 27.2382 18.7031H26.6013C26.3944 19.3506 26.1334 19.9795 25.8207 20.5838L26.2721 21.0352C27.3658 22.1278 27.3356 23.8787 26.2717 24.9414L24.9409 26.2721C23.8769 27.3376 22.126 27.3642 21.0348 26.2718L20.5838 25.8208C19.9795 26.1335 19.3505 26.3945 18.7031 26.6014V27.2384C18.7031 28.7611 17.4642 30 15.9414 30ZM9.70998 23.9748C10.5495 24.4713 11.453 24.8463 12.3954 25.0896C12.7835 25.1897 13.0547 25.5397 13.0547 25.9406V27.2383C13.0547 27.7918 13.5051 28.2422 14.0586 28.2422H15.9414C16.495 28.2422 16.9454 27.7918 16.9454 27.2383V25.9406C16.9454 25.5397 17.2165 25.1897 17.6047 25.0896C18.5471 24.8463 19.4506 24.4713 20.2901 23.9748C20.6355 23.7705 21.0752 23.8261 21.359 24.1099L22.2782 25.0291C22.6746 25.4259 23.311 25.4167 23.6976 25.0296L25.0293 23.698C25.4149 23.3128 25.4278 22.6762 25.0296 22.2785L24.11 21.3589C23.8263 21.0752 23.7707 20.6354 23.9749 20.29C24.4714 19.4506 24.8464 18.5471 25.0896 17.6046C25.1898 17.2165 25.5398 16.9454 25.9406 16.9454H27.2383C27.7918 16.9454 28.2422 16.495 28.2422 15.9415V14.0586C28.2422 13.5051 27.7918 13.0547 27.2383 13.0547H25.9406C25.5398 13.0547 25.1898 12.7836 25.0896 12.3955C24.8464 11.453 24.4713 10.5495 23.9749 9.7101C23.7707 9.36475 23.8263 8.92494 24.11 8.64123L25.0293 7.72195C25.4266 7.32504 25.4163 6.68871 25.0296 6.30252L23.6981 4.97098C23.3121 4.58449 22.6755 4.57318 22.2786 4.97062L21.3591 5.89025C21.0754 6.17402 20.6354 6.22957 20.2901 6.02531C19.4507 5.52885 18.5471 5.15379 17.6047 4.91057C17.2166 4.81043 16.9454 4.46039 16.9454 4.05955V2.7617C16.9454 2.20816 16.495 1.75781 15.9415 1.75781H14.0587C13.5052 1.75781 13.0547 2.20816 13.0547 2.7617V4.05943C13.0547 4.46027 12.7836 4.81031 12.3954 4.91045C11.453 5.15367 10.5495 5.52873 9.71004 6.0252C9.36457 6.22939 8.92482 6.17385 8.64111 5.89014L7.72189 4.97086C7.32557 4.57406 6.68906 4.58326 6.30252 4.97045L4.97086 6.30205C4.5852 6.68725 4.5723 7.32375 4.97051 7.72148L5.89014 8.64111C6.17385 8.92482 6.22939 9.36463 6.0252 9.70998C5.52873 10.5494 5.15373 11.4529 4.91051 12.3954C4.81031 12.7835 4.46027 13.0546 4.05949 13.0546H2.76176C2.20822 13.0547 1.75781 13.505 1.75781 14.0586V15.9414C1.75781 16.495 2.20822 16.9453 2.76176 16.9453H4.05943C4.46027 16.9453 4.81025 17.2165 4.91045 17.6045C5.15367 18.547 5.52873 19.4505 6.02514 20.29C6.22934 20.6353 6.17379 21.0751 5.89008 21.3588L4.9708 22.2781C4.57342 22.675 4.58379 23.3113 4.97045 23.6975L6.30199 25.0291C6.68795 25.4156 7.32451 25.4269 7.72143 25.0294L8.641 24.1098C8.85006 23.9008 9.285 23.7234 9.70998 23.9748Z" fill="#F3EED9"/>
    <path d="M15 21.5273C11.4008 21.5273 8.47266 18.5992 8.47266 15C8.47266 11.4008 11.4008 8.47266 15 8.47266C18.5992 8.47266 21.5273 11.4008 21.5273 15C21.5273 18.5992 18.5992 21.5273 15 21.5273ZM15 10.2305C12.37 10.2305 10.2305 12.3701 10.2305 15C10.2305 17.6299 12.3701 19.7695 15 19.7695C17.6299 19.7695 19.7695 17.6299 19.7695 15C19.7695 12.3701 17.63 10.2305 15 10.2305Z" fill="#F3EED9"/>
</svg>
