<svg width="22" height="22" viewBox="0 0 22 22" fill="none" xmlns="http://www.w3.org/2000/svg">
    <path d="M5.06955 0H3.52664C1.58205 0 0 1.54206 0 3.4375V18.5625C0 20.4579 1.58205 22 3.52664 22H5.06955C7.01414 22 8.59619 20.4579 8.59619 18.5625V3.4375C8.59619 1.54206 7.01414 0 5.06955 0ZM6.83287 18.5625C6.83287 19.5102 6.04184 20.2812 5.06955 20.2812H3.52664C2.55435 20.2812 1.76332 19.5102 1.76332 18.5625V3.4375C1.76332 2.48978 2.55435 1.71875 3.52664 1.71875H5.06955C6.04184 1.71875 6.83287 2.48978 6.83287 3.4375V18.5625Z" fill="#F3EED9"/>
    <path d="M21.1183 15.125C21.6053 15.125 22 14.7403 22 14.2656V3.4375C22 1.54206 20.4179 0 18.4734 0H16.9745C15.0299 0 13.4479 1.54206 13.4479 3.4375V18.5625C13.4479 20.4579 15.0299 22 16.9745 22H18.4734C20.4179 22 22 20.4579 22 18.5625C22 18.0879 21.6053 17.7031 21.1183 17.7031C20.6314 17.7031 20.2367 18.0879 20.2367 18.5625C20.2367 19.5102 19.4457 20.2812 18.4734 20.2812H16.9745C16.0022 20.2812 15.2112 19.5102 15.2112 18.5625V3.4375C15.2112 2.48978 16.0022 1.71875 16.9745 1.71875H18.4734C19.4457 1.71875 20.2367 2.48978 20.2367 3.4375V14.2656C20.2367 14.7403 20.6314 15.125 21.1183 15.125Z" fill="#F3EED9"/>
</svg>
