<svg width="19" height="22" viewBox="0 0 19 22" fill="none" xmlns="http://www.w3.org/2000/svg">
    <path d="M17.5712 8.46139L4.57896 0.451786C3.639 -0.126961 2.50256 -0.151024 1.53892 0.387418C0.575286 0.925775 0 1.90637 0 3.01028V18.9565C0 20.6257 1.34477 21.9909 2.99759 22C3.0021 22 3.00661 22 3.01104 22C3.52755 22 4.0658 21.8381 4.56852 21.5313C4.97294 21.2845 5.10076 20.7566 4.85401 20.3521C4.60727 19.9476 4.07933 19.8198 3.67504 20.0666C3.4399 20.21 3.21026 20.2843 3.00683 20.2842C2.38321 20.2808 1.7155 19.7465 1.7155 18.9566V3.01032C1.7155 2.53676 1.96229 2.11623 2.3756 1.88527C2.78896 1.65431 3.27638 1.66462 3.67908 1.9126L16.6714 9.9222C17.0619 10.1627 17.2853 10.5636 17.2844 11.0222C17.2835 11.4808 17.0584 11.8809 16.6657 12.1205L7.27223 17.8727C6.8682 18.1201 6.7412 18.6482 6.98859 19.0523C7.23593 19.4563 7.764 19.5833 8.16803 19.3359L17.5604 13.5845C18.4597 13.0358 18.9978 12.0793 19 11.0257C19.0021 9.97217 18.4678 9.01345 17.5712 8.46139Z" fill="#F3EED9"/>
</svg>
