<svg width="52" height="41" viewBox="0 0 52 41" fill="none" xmlns="http://www.w3.org/2000/svg">
    <path d="M41.6793 14.826C39.6009 12.7361 37.0061 11.3412 34.1777 10.7578C34.8341 10.2243 35.3687 9.70918 35.7481 9.31543C36.0332 9.01965 36.1211 8.59676 35.9776 8.21184C35.8337 7.82622 35.4896 7.56387 35.0795 7.52708C34.0389 7.4338 32.4506 7.3438 30.8854 7.4563C31.3267 6.66942 31.7922 5.65302 32.1883 4.29397C32.333 3.79787 32.2757 3.27522 32.0272 2.82217C31.7786 2.36905 31.3686 2.03999 30.8729 1.89554C30.3768 1.75069 29.8542 1.8078 29.401 2.05647C28.9479 2.30507 28.6187 2.71514 28.4741 3.21116C28.1696 4.25576 27.821 5.02013 27.4638 5.64357C27.2789 5.27584 27.0891 4.9374 26.9153 4.64654C26.7209 4.32123 26.3787 4.12701 25.9999 4.12701C25.6211 4.12701 25.2789 4.32123 25.0846 4.64646C24.5882 5.47701 23.9609 6.69028 23.6905 7.89169C22.9781 7.67341 22.1111 7.52684 21.1081 7.45536C20.7852 7.43177 20.5049 7.67528 20.4819 7.99817C20.4589 8.32098 20.7019 8.60129 21.0247 8.62434C22.0473 8.69723 22.8999 8.85098 23.5589 9.08152C23.818 9.17207 24.1031 9.14473 24.3405 9.00613C24.5777 8.8677 24.7417 8.63324 24.7902 8.36317C24.9854 7.27809 25.5967 6.09505 25.9998 5.40146C26.4028 6.09521 27.0142 7.27848 27.2093 8.36325C27.2579 8.63348 27.4219 8.86785 27.6592 9.00621C27.8966 9.14465 28.1815 9.17215 28.4407 9.08145C30.3256 8.42215 33.3134 8.55864 34.736 8.67395C34.2215 9.19207 33.472 9.87636 32.5544 10.5153C32.1017 10.4728 31.6448 10.4496 31.1844 10.4481C30.2363 10.4432 29.2904 10.5312 28.3678 10.7051C26.7965 11.0012 25.203 11.001 23.6318 10.7051C22.7089 10.5312 21.7603 10.4435 20.8144 10.4481C20.3542 10.4497 19.8975 10.4728 19.445 10.5153C18.5275 9.87644 17.778 9.19199 17.2632 8.67387C17.6149 8.64512 17.9697 8.62239 18.3212 8.60598C18.6445 8.5909 18.8942 8.31661 18.8792 7.99333C18.8642 7.66997 18.5899 7.42294 18.2666 7.43528C17.8189 7.45622 17.3659 7.48708 16.9202 7.52708C16.5101 7.56387 16.166 7.82622 16.0221 8.21176C15.8785 8.59668 15.9664 9.01957 16.2515 9.31543C16.631 9.70918 17.1657 10.2243 17.8221 10.7578C14.9934 11.3412 12.3983 12.7364 10.3199 14.8265C7.52632 17.636 5.99211 21.3717 6 25.3457C6.00797 29.3106 7.55788 33.0369 10.3644 35.8382C13.1714 38.6398 16.9014 40.1828 20.8674 40.1828C21.6886 40.1828 22.5128 40.1151 23.317 39.9815C25.0973 39.6859 26.9027 39.6857 28.6829 39.9815C29.4872 40.1151 30.3114 40.1828 31.1325 40.1828C33.9785 40.1828 36.7444 39.3761 39.1314 37.8498C39.4041 37.6755 39.4838 37.3131 39.3094 37.0406C39.1352 36.7679 38.7727 36.6881 38.5002 36.8626C36.302 38.2681 33.7543 39.011 31.1325 39.011C30.3754 39.011 29.6159 38.9486 28.875 38.8256C26.9674 38.5086 25.0328 38.5086 23.1249 38.8256C22.3841 38.9486 21.6245 39.011 20.8674 39.011C17.2141 39.011 13.7781 37.5897 11.1924 35.0088C8.60694 32.4282 7.17921 28.9957 7.17187 25.3433C7.16453 21.6821 8.57772 18.2406 11.151 15.6528C13.3786 13.4126 16.2509 12.0393 19.3573 11.7022C19.3595 11.702 19.3617 11.7017 19.3638 11.7014C19.8438 11.6496 20.3292 11.6217 20.8188 11.62C21.6888 11.6148 22.5651 11.6966 23.4152 11.8567C25.1304 12.1799 26.8698 12.1799 28.5851 11.8567C29.4195 11.6995 30.2763 11.6199 31.1328 11.6199C31.1486 11.6199 31.1647 11.6199 31.1806 11.62C31.6704 11.6216 32.156 11.6496 32.6361 11.7014C32.6382 11.7017 32.6404 11.7019 32.6425 11.7021C35.7486 12.0392 38.6207 13.4124 40.8484 15.6523C43.4218 18.2398 44.8351 21.6812 44.828 25.3424C44.8207 29.1044 43.3191 32.6093 40.6001 35.2113C40.3663 35.4351 40.3581 35.806 40.5819 36.0399C40.8056 36.2736 41.1765 36.2818 41.4103 36.0581C44.362 33.2334 45.992 29.4286 45.9999 25.3447C46.0076 21.371 44.4731 17.6353 41.6793 14.826ZM28.3093 7.89176C28.2383 7.57622 28.1422 7.25997 28.0308 6.94989C28.5782 6.13318 29.1355 5.12927 29.5991 3.53928C29.6561 3.34366 29.786 3.18194 29.9647 3.08389C30.1433 2.98585 30.3492 2.9635 30.5447 3.02061C30.7402 3.07756 30.9018 3.20733 30.9997 3.38592C31.0977 3.56452 31.1203 3.77061 31.0632 3.96615C30.5558 5.70708 29.9281 6.83513 29.4072 7.63364C29.0245 7.70106 28.6551 7.78583 28.3093 7.89176Z" fill="#F3EED9"/>
    <path d="M17.4182 21.804C17.4182 22.1277 17.6804 22.39 18.0041 22.39C18.3278 22.39 18.59 22.1277 18.59 21.804C18.59 21.321 18.9829 20.9281 19.466 20.9281C19.949 20.9281 20.342 21.321 20.342 21.804C20.342 22.1277 20.6042 22.39 20.9279 22.39C21.2516 22.39 21.5138 22.1277 21.5138 21.804C21.5138 20.6749 20.5952 19.7562 19.466 19.7562C18.3367 19.7562 17.4182 20.6749 17.4182 21.804Z" fill="#F3EED9"/>
    <path d="M30.4861 21.804C30.4861 22.1277 30.7484 22.39 31.072 22.39C31.3957 22.39 31.658 22.1277 31.658 21.804C31.658 21.321 32.0509 20.9281 32.534 20.9281C33.017 20.9281 33.4099 21.321 33.4099 21.804C33.4099 22.1277 33.6722 22.39 33.9958 22.39C34.3195 22.39 34.5818 22.1277 34.5818 21.804C34.5818 20.6749 33.6631 19.7562 32.534 19.7562C31.4048 19.7562 30.4861 20.6749 30.4861 21.804Z" fill="#F3EED9"/>
    <path d="M27.1091 23.1277C26.8291 23.4489 26.4248 23.6332 26 23.6332C25.5752 23.6332 25.1709 23.449 24.8909 23.1277C24.6784 22.8837 24.3082 22.8583 24.0643 23.0711C23.8203 23.2837 23.795 23.6538 24.0076 23.8977C24.5102 24.4744 25.2364 24.8051 26 24.8051C26.7636 24.8051 27.4898 24.4744 27.9924 23.8977C28.2051 23.6538 28.1797 23.2837 27.9357 23.0711C27.6917 22.8583 27.3216 22.8837 27.1091 23.1277Z" fill="#F3EED9"/>
    <path d="M47.5 17.5H50C50.8284 17.5 51.5 18.1716 51.5 19V27C51.5 27.8284 50.8284 28.5 50 28.5H47.5V17.5Z" stroke="#F3EED9"/>
    <path d="M4.5 17.5H2C1.17157 17.5 0.5 18.1716 0.5 19V27C0.5 27.8284 1.17157 28.5 2 28.5H4.5V17.5Z" stroke="#F3EED9"/>
    <path fill-rule="evenodd" clip-rule="evenodd" d="M21 0.553239C21 0.266503 20.7585 0.0377592 20.4727 0.0604943C11.1973 0.798261 3.79826 8.19727 3.06049 17.4727C3.03775 17.7585 3.2665 18 3.55323 18C3.81915 18 4.038 17.791 4.05948 17.526C4.76991 8.76046 11.7605 1.76992 20.526 1.05948C20.791 1.038 21 0.819152 21 0.553239ZM23 0.5C23 0.776142 23.2239 1 23.5 1H30C39.4448 1 47.1906 8.27429 47.9405 17.5259C47.962 17.791 48.1808 18 48.4468 18C48.7335 18 48.9622 17.7584 48.9395 17.4726C48.1616 7.6934 39.9792 0 30 0H23.5C23.2239 0 23 0.223858 23 0.5Z" fill="#F3EED9"/>
</svg>
