<svg width="52" height="41" viewBox="0 0 52 41" fill="none" xmlns="http://www.w3.org/2000/svg">
    <path d="M27.4897 10.0889C27.207 10.0889 26.9218 10.0029 26.6755 9.82435C26.0542 9.37403 25.9158 8.50536 26.366 7.88427C26.5064 7.69052 26.646 7.502 26.7845 7.31528C27.7046 6.07317 28.4992 5.00052 29.1283 2.84294C29.343 2.1063 30.1145 1.68302 30.8508 1.89802C31.5873 2.11271 32.0104 2.88396 31.7957 3.62052C31.0276 6.25521 30.0055 7.63489 29.0171 8.96919C28.8843 9.14841 28.7504 9.32911 28.6156 9.51497C28.3438 9.88982 27.9198 10.0889 27.4897 10.0889Z" fill="#F3EED9"/>
    <path opacity="0.1" d="M29.1148 6.94265C28.905 7.01601 28.6789 6.88422 28.6395 6.66555C28.5507 6.17164 28.388 5.66586 28.1951 5.18555C27.7682 5.98648 27.2958 6.625 26.7844 7.31531C26.646 7.50211 26.5064 7.69055 26.3659 7.88429C25.9156 8.50539 26.0541 9.37414 26.6754 9.82437C26.9217 10.003 27.2069 10.0889 27.4896 10.0889C27.9197 10.0889 28.3437 9.88984 28.6155 9.51492C28.7502 9.32906 28.8841 9.14828 29.0169 8.96914C29.5494 8.25039 30.0916 7.51804 30.5986 6.58383C30.0703 6.66828 29.5665 6.78469 29.1148 6.94265Z" fill="black"/>
    <path d="M16.7003 7.72136C16.293 7.75785 16.1084 8.2491 16.3922 8.54355C17.1541 9.3341 18.5382 10.6143 20.2789 11.5396C22.9737 12.9722 26.0001 11.9471 26.0001 11.9471C26.0001 11.9471 29.0264 12.9722 31.7212 11.5396C33.4619 10.6143 34.846 9.33402 35.608 8.54355C35.8918 8.2491 35.7071 7.75785 35.2998 7.72136C33.6965 7.57769 30.4342 7.41058 28.3155 8.15167C28.1057 8.22503 27.8796 8.09324 27.8402 7.87457C27.6112 6.60105 26.8934 5.24621 26.4249 4.4623C26.2327 4.14066 25.7674 4.14066 25.5752 4.4623C25.1068 5.24621 24.389 6.60105 24.1599 7.87457C24.1205 8.09324 23.8945 8.22503 23.6847 8.15167C21.5659 7.41066 18.3037 7.57769 16.7003 7.72136Z" fill="#6BB48C"/>
    <path d="M26.0001 12.4697C25.9039 12.4973 25.7669 12.5338 25.5954 12.5726C25.25 12.6507 24.762 12.7386 24.1852 12.7794C23.037 12.8604 21.5031 12.7567 20.0442 11.9811C18.2383 11.0211 16.8122 9.69992 16.0322 8.89055L26.0001 12.4697ZM26.0001 12.4697C26.0962 12.4973 26.2332 12.5338 26.4047 12.5726C26.7501 12.6507 27.2381 12.7386 27.8149 12.7794C28.9632 12.8604 30.4971 12.7567 31.9559 11.9811L31.956 11.9811C33.7618 11.0211 35.1879 9.69979 35.968 8.89055L35.608 8.54355L35.968 8.89055C36.5451 8.29181 36.1673 7.29707 35.3445 7.22336C34.5318 7.15054 33.2948 7.07133 31.9881 7.1049C30.7471 7.13677 29.407 7.2709 28.3019 7.62873C28.0287 6.31088 27.3099 4.96858 26.8541 4.20583L26.8541 4.20583C26.4679 3.55948 25.5322 3.55948 25.146 4.20583L25.146 4.20583C24.6902 4.96858 23.9714 6.31088 23.6983 7.62874C22.5931 7.27094 21.2531 7.13681 20.0121 7.10493C18.7053 7.07135 17.4684 7.15054 16.6557 7.22336L26.0001 12.4697ZM16.6557 7.22336C15.8327 7.29709 15.4552 8.29185 16.0322 8.89051L16.6557 7.22336Z" fill="#F3EED9" stroke="#FF5C5C"/>
    <path d="M20.6621 11.2329L20.6621 11.2329C12.8067 11.2602 6.48437 17.6187 6.5 25.4743C6.51562 33.3103 12.8728 39.6579 20.7125 39.6579C21.5109 39.6579 22.2934 39.592 23.0552 39.4654C25.004 39.1417 26.9959 39.1417 28.9448 39.4654C29.7066 39.592 30.4891 39.6579 31.2874 39.6579C39.1274 39.6579 45.4848 33.31 45.4999 25.4735C45.5152 17.618 39.1927 11.2599 31.3374 11.2329C30.4162 11.2297 29.5159 11.3144 28.6439 11.4785C26.8959 11.8078 25.1045 11.8079 23.3564 11.4786M20.6621 11.2329L23.3564 11.4786M20.6621 11.2329C21.5836 11.2296 22.4842 11.3144 23.3564 11.4786M20.6621 11.2329L23.4489 10.9873L23.3564 11.4786" fill="#F3EED9" stroke="#FF5C5C"/>
    <path d="M17.425 27.089C19.1725 27.089 20.5891 25.961 20.5891 24.5695C20.5891 23.178 19.1725 22.0499 17.425 22.0499C15.6776 22.0499 14.261 23.178 14.261 24.5695C14.261 25.961 15.6776 27.089 17.425 27.089Z" fill="#FFBFD6"/>
    <path d="M34.575 27.089C36.3225 27.089 37.7391 25.961 37.7391 24.5695C37.7391 23.178 36.3225 22.0499 34.575 22.0499C32.8275 22.0499 31.4109 23.178 31.4109 24.5695C31.4109 25.961 32.8275 27.089 34.575 27.089Z" fill="#FFBFD6"/>
    <path d="M20.7748 22.4137C20.4512 22.4137 20.1889 22.1514 20.1889 21.8278C20.1889 21.3204 19.7762 20.9077 19.2688 20.9077C18.7615 20.9077 18.3488 21.3204 18.3488 21.8278C18.3488 22.1514 18.0865 22.4137 17.7628 22.4137C17.4391 22.4137 17.1769 22.1514 17.1769 21.8278C17.1769 20.6743 18.1154 19.7358 19.2688 19.7358C20.4223 19.7358 21.3608 20.6744 21.3608 21.8278C21.3608 22.1514 21.0985 22.4137 20.7748 22.4137Z" fill="#FF5C5C"/>
    <path d="M34.2373 22.4137C33.9136 22.4137 33.6513 22.1514 33.6513 21.8278C33.6513 21.3204 33.2386 20.9077 32.7313 20.9077C32.2239 20.9077 31.8112 21.3204 31.8112 21.8278C31.8112 22.1514 31.5489 22.4137 31.2253 22.4137C30.9016 22.4137 30.6393 22.1514 30.6393 21.8278C30.6393 20.6743 31.5778 19.7358 32.7313 19.7358C33.8848 19.7358 34.8232 20.6744 34.8232 21.8278C34.8232 22.1514 34.5609 22.4137 34.2373 22.4137Z" fill="#FF5C5C"/>
    <path d="M26 24.9019C25.2184 24.9019 24.4751 24.5634 23.9607 23.9731C23.748 23.7291 23.7736 23.3591 24.0175 23.1464C24.2614 22.9338 24.6315 22.9592 24.8442 23.2032C25.1359 23.538 25.5573 23.73 26 23.73C26.4427 23.73 26.8641 23.538 27.1558 23.2032C27.3684 22.9593 27.7384 22.9339 27.9825 23.1464C28.2264 23.3591 28.2519 23.7291 28.0392 23.9731C27.5249 24.5634 26.7816 24.9019 26 24.9019Z" fill="#FF5C5C"/>
    <path d="M47 17H50C51.1046 17 52 17.8954 52 19V27C52 28.1046 51.1046 29 50 29H47V17Z" fill="#F3EED9"/>
    <path d="M5 17H2C0.895431 17 0 17.8954 0 19V27C0 28.1046 0.895431 29 2 29H5V17Z" fill="#F3EED9"/>
    <path fill-rule="evenodd" clip-rule="evenodd" d="M21 0.553239C21 0.266503 20.7585 0.0377592 20.4727 0.0604943C11.1973 0.798261 3.79826 8.19727 3.06049 17.4727C3.03775 17.7585 3.2665 18 3.55323 18C3.81915 18 4.038 17.791 4.05948 17.526C4.76991 8.76046 11.7605 1.76992 20.526 1.05948C20.791 1.038 21 0.819152 21 0.553239ZM23 0.5C23 0.776142 23.2239 1 23.5 1H30C39.4448 1 47.1906 8.27429 47.9405 17.5259C47.962 17.791 48.1808 18 48.4468 18C48.7335 18 48.9622 17.7584 48.9395 17.4726C48.1616 7.6934 39.9792 0 30 0H23.5C23.2239 0 23 0.223858 23 0.5Z" fill="#F3EED9"/>
</svg>
