<svg width="40" height="40" viewBox="0 0 40 40" fill="none" xmlns="http://www.w3.org/2000/svg">
    <path d="M33.1035 35.5215H0C0 37.045 1.23509 38.2801 2.75862 38.2801H30.3448C31.8684 38.2801 33.1035 37.045 33.1035 35.5215Z" fill="#F3EED9"/>
    <path d="M16.5517 10.0042C16.1709 10.0042 15.8621 9.69536 15.8622 9.31442C15.8622 9.13157 15.9349 8.95631 16.0641 8.827L16.3745 8.51666C16.9011 7.98968 16.9008 7.13554 16.3738 6.6089C16.3108 6.54597 16.2417 6.48942 16.1676 6.44011C14.9143 5.60364 14.5764 3.90959 15.4128 2.65632C15.5125 2.50692 15.6267 2.36778 15.7538 2.2408L16.0641 1.93046C16.3287 1.65649 16.7653 1.6489 17.0393 1.91347C17.3133 2.17804 17.3209 2.61468 17.0563 2.88865C17.0508 2.89442 17.0451 2.90002 17.0393 2.90563L16.729 3.21597C16.2023 3.74295 16.2027 4.59709 16.7296 5.12373C16.7927 5.18666 16.8617 5.24321 16.9359 5.29252C18.1891 6.12899 18.5271 7.82304 17.6906 9.07631C17.5909 9.22571 17.4767 9.36485 17.3496 9.49183L17.0393 9.80217C16.91 9.93157 16.7346 10.0042 16.5517 10.0042Z" fill="#F3EED9"/>
    <path d="M20.6896 10.0042C20.3088 10.0041 20.0001 9.69535 20.0001 9.3144C20.0001 9.13156 20.0728 8.9563 20.202 8.82699L20.5124 8.51665C21.039 7.98966 21.0387 7.13553 20.5117 6.60889C20.4487 6.54596 20.3796 6.48941 20.3055 6.4401C19.0522 5.60363 18.7143 3.90958 19.5507 2.65631C19.6504 2.50691 19.7646 2.36777 19.8917 2.24079L20.202 1.93044C20.4667 1.65648 20.9033 1.64889 21.1772 1.91355C21.4512 2.1782 21.4588 2.61475 21.1941 2.88872C21.1886 2.8945 21.1829 2.9001 21.1772 2.90562L20.8669 3.21596C20.3402 3.74294 20.3406 4.59708 20.8676 5.12372C20.9306 5.18665 20.9996 5.2432 21.0738 5.29251C22.3271 6.12898 22.665 7.82303 21.8285 9.0763C21.7289 9.2257 21.6146 9.36484 21.4876 9.49182L21.1772 9.80216C21.0479 9.93156 20.8726 10.0042 20.6896 10.0042Z" fill="#F3EED9"/>
    <path d="M12.4138 10.0042C12.0329 10.0042 11.7242 9.69536 11.7243 9.31442C11.7243 9.13157 11.797 8.95631 11.9262 8.827L12.2365 8.51666C12.7632 7.98968 12.7628 7.13554 12.2358 6.6089C12.1728 6.54597 12.1038 6.48942 12.0296 6.44011C10.7764 5.60364 10.4384 3.90959 11.2749 2.65632C11.3745 2.50692 11.4888 2.36778 11.6158 2.2408L11.9262 1.93046C12.1908 1.65649 12.6274 1.6489 12.9014 1.91347C13.1753 2.17804 13.1829 2.61468 12.9183 2.88865C12.9128 2.89442 12.9071 2.90002 12.9014 2.90563L12.591 3.21597C12.0644 3.74295 12.0647 4.59709 12.5917 5.12373C12.6547 5.18666 12.7238 5.24321 12.7979 5.29252C14.0512 6.12899 14.3891 7.82304 13.5527 9.07631C13.453 9.22571 13.3388 9.36485 13.2117 9.49183L12.9014 9.80217C12.7721 9.93157 12.5967 10.0042 12.4138 10.0042Z" fill="#F3EED9"/>
    <path fill-rule="evenodd" clip-rule="evenodd" d="M32.4764 14.8318H31.0345V17.5904H32.1339C32.3052 16.5199 32.4202 15.5709 32.4764 14.8318ZM32.2808 25.5909C35.1473 24.7542 37.2414 22.1065 37.2414 18.9697C37.2414 18.2079 36.6239 17.5904 35.8621 17.5904H34.1583C34.321 16.5296 34.43 15.5833 34.4816 14.8318H35.8621C38.1474 14.8318 40 16.6844 40 18.9697C40 24.0457 36.083 28.2069 31.1067 28.5953C31.5393 27.6729 31.9308 26.6516 32.2808 25.5909ZM30.069 25.8663H28.9655L26.2069 28.6249H28.85C29.2888 27.8305 29.6966 26.8899 30.069 25.8663Z" fill="#F3EED9"/>
    <path fill-rule="evenodd" clip-rule="evenodd" d="M26.8146 33.5C30.9227 26.8605 33.1035 19.2024 33.1035 11.3835H0C0 19.2025 2.18077 26.8605 6.28888 33.5H26.8146ZM25.5311 35.5H7.57232L7.58621 35.5215V36.2111H25.5172V35.5215L25.5311 35.5Z" fill="#F3EED9"/>
    <path d="M5.33862 26.5559C5.05414 26.5558 4.79888 26.3811 4.69586 26.1159C3.9 24.065 3.26362 21.9558 2.79241 19.8069C2.69189 19.4395 2.90827 19.0602 3.27569 18.9598C3.6431 18.8593 4.02241 19.0756 4.12284 19.443C4.12905 19.4657 4.13405 19.4887 4.13793 19.5118C4.59439 21.5911 5.21043 23.632 5.98069 25.6166C6.11853 25.9717 5.9425 26.3712 5.5875 26.5091C5.5081 26.54 5.4237 26.5558 5.33862 26.5559Z" fill="#FF5C5C"/>
    <path d="M6.89654 30.08C6.63361 30.0812 6.39283 29.9327 6.27585 29.6972C6.14757 29.4393 6.0218 29.18 5.89861 28.9193C5.72861 28.5784 5.86714 28.1643 6.208 27.9944C6.54886 27.8244 6.963 27.9629 7.13292 28.3038C7.13731 28.3126 7.14145 28.3215 7.1455 28.3304C7.26507 28.5828 7.38688 28.8341 7.51102 29.0842C7.68016 29.4255 7.54059 29.8392 7.19929 30.0083C7.10524 30.0552 7.00162 30.0797 6.89654 30.08Z" fill="#FF5C5C"/>
</svg>
