<svg width="40" height="40" viewBox="0 0 40 40" fill="none" xmlns="http://www.w3.org/2000/svg">
    <path d="M8.76766 8.92192C10.5561 8.59554 12.0598 8.55456 13.0859 8.80717C11.954 9.62984 10.2461 11.2156 9.08585 13.8646C8.91521 14.2536 8.94874 14.6784 9.17825 15.0293C9.56872 15.6262 10.4667 15.776 11.027 15.3155C13.1843 13.539 15.1612 12.577 16.6314 12.6843C16.6121 14.7805 16.7231 19.3282 17.969 21.2679C18.2015 21.6286 18.595 21.8432 19.022 21.8432C19.4184 21.8432 19.7962 21.6517 20.0309 21.3298C20.8029 20.2686 22.5734 17.3401 22.5682 12.8095C23.6569 12.881 25.8716 13.2469 27.6309 14.966C28.1279 15.4504 28.9841 15.4094 29.4372 14.8945C29.6719 14.6284 29.7815 14.2693 29.736 13.9116C29.5564 12.495 28.8284 10.5188 26.4327 8.9182C27.11 8.8027 28.1041 8.70061 29.5043 8.70061C29.8426 8.70061 30.2032 8.70657 30.631 8.71924C31.1891 8.71924 31.6712 8.35932 31.8277 7.82205C31.9849 7.28628 31.7748 6.72293 31.3039 6.42113C29.8046 5.46061 27.4811 4.31528 24.9237 4.31528C23.9006 4.31528 22.8223 4.66104 21.9013 5.02841V2.23551C21.9013 1.09093 21.168 0 20.1479 0H18.4914C17.4713 0 16.6419 0.931463 16.6844 2.07604V5.13422C16.0524 5.02841 15.2253 4.92558 14.2506 4.92558C11.9205 4.92558 9.78557 5.49563 7.90327 6.61935C7.41667 6.91071 7.19163 7.47331 7.34215 8.02101C7.51727 8.64696 8.08807 9.04488 8.76766 8.92192Z" fill="#F3EED9"/>
    <path d="M33.1504 8.52472C32.7294 9.54113 31.7554 10.2095 30.6317 10.2095C30.3381 10.2006 30.0907 10.1954 29.8649 10.1932C30.7331 11.4555 31.0878 12.7185 31.2159 13.7238C31.3143 14.5077 31.0743 15.2931 30.5557 15.881C30.0438 16.4623 29.2926 16.7969 28.4946 16.7969C27.7717 16.7969 27.0959 16.5256 26.5907 16.0331C25.7687 15.2305 24.8149 14.7931 23.9773 14.5561C23.5973 18.548 21.9825 21.1814 21.2359 22.2075C20.7209 22.914 19.8931 23.335 19.0212 23.335C18.0845 23.335 17.2224 22.864 16.7142 22.0756C15.6054 20.3491 15.238 17.241 15.1568 14.454C14.4079 14.7476 13.3572 15.3289 11.9741 16.4675C11.495 16.8609 10.8832 17.077 10.2498 17.077C9.3027 17.077 8.43532 16.6173 7.93159 15.8475C7.4286 15.077 7.3511 14.1142 7.72071 13.2685C8.22668 12.1135 8.82579 11.1373 9.44876 10.3183C9.31239 10.34 9.17528 10.3645 9.03444 10.3899C7.81832 10.606 6.74975 10.0516 6.19683 9.08732C2.43819 12.4704 0.292847 17.1195 0.292847 21.9572C0.292847 31.9074 9.1328 40.0015 19.9996 40.0015C30.8664 40.0015 39.7064 31.9074 39.7064 21.9572C39.7071 16.7618 37.3338 11.948 33.1504 8.52472ZM4.02391 16.9712C4.16475 16.5845 4.59397 16.387 4.97997 16.5271C5.36671 16.6687 5.56493 17.0972 5.42409 17.4832C5.14018 18.2581 4.96656 19.0823 4.90694 19.931C4.88012 20.3237 4.55224 20.6248 4.16475 20.6248C4.14761 20.6248 4.12973 20.6241 4.11259 20.6226C3.70126 20.5942 3.39201 20.2381 3.42033 19.8282C3.48963 18.8386 3.69306 17.8774 4.02391 16.9712ZM5.43974 26.4505C5.32051 26.5213 5.18936 26.5549 5.06045 26.5549C4.8056 26.5549 4.55746 26.4245 4.41886 26.1897C3.86147 25.2486 3.49559 24.2083 3.33314 23.1003C3.27353 22.6926 3.5552 22.3141 3.96207 22.2545C4.37638 22.1897 4.74822 22.4765 4.80783 22.8834C4.94271 23.7992 5.24301 24.6562 5.70129 25.4297C5.91069 25.7836 5.79444 26.2411 5.43974 26.4505Z" fill="#F3EED9"/>
</svg>
