<svg width="20" height="9" viewBox="0 0 20 9" fill="none" xmlns="http://www.w3.org/2000/svg">
    <path d="M10 7.97189C9.91114 7.99492 9.78397 8.02563 9.62461 8.05824C9.30571 8.12349 8.85536 8.19684 8.3232 8.23082C7.26485 8.29839 5.84889 8.21237 4.49939 7.56356L4.71604 7.11293L4.49938 7.56356C2.82828 6.76012 1.50765 5.65391 0.78422 4.97504L10 7.97189ZM10 7.97189C10.0889 7.99492 10.216 8.02563 10.3754 8.05824C10.6943 8.12349 11.1446 8.19684 11.6768 8.23082C12.7351 8.29839 14.1511 8.21237 15.5006 7.56356L15.5006 7.56355C17.1717 6.7601 18.4923 5.6538 19.2158 4.97504L18.9404 4.68155L19.2158 4.97504C19.505 4.70369 19.5658 4.31585 19.4326 3.99463C19.3021 3.68021 19 3.45531 18.6295 3.4253C17.8791 3.36449 16.7371 3.29836 15.5307 3.32638C14.3923 3.35283 13.1636 3.46353 12.1467 3.75823C11.8795 2.65614 11.2229 1.55138 10.8095 0.925851C10.4344 0.35805 9.56563 0.35805 9.19047 0.925851C8.77715 1.55138 8.12054 2.65614 7.85336 3.75823C6.83642 3.46357 5.60772 3.35286 4.46935 3.32641C3.26298 3.29837 2.1209 3.36449 1.37054 3.4253L10 7.97189ZM0.567398 3.99465C0.697841 3.68019 1.00002 3.45532 1.37052 3.4253L0.567398 3.99465ZM0.567398 3.99465C0.434143 4.31589 0.495033 4.70369 0.784186 4.97501L0.567398 3.99465Z" fill="#F3EED9" stroke="#FF5C5C"/>
    <path d="M1.41091 3.92366C1.0347 3.95414 0.864194 4.36446 1.12633 4.61041C1.82999 5.27072 3.10835 6.33999 4.71604 7.11293C7.20487 8.30951 10 7.4533 10 7.4533C10 7.4533 12.7951 8.30951 15.284 7.11293C16.8916 6.33999 18.17 5.27066 18.8737 4.61041C19.1358 4.36446 18.9652 3.95414 18.5891 3.92366C17.1083 3.80366 14.0953 3.66408 12.1385 4.28309C11.9447 4.34436 11.7359 4.23428 11.6995 4.05163C11.488 2.98791 10.825 1.85626 10.3924 1.20149C10.2149 0.932836 9.78513 0.932836 9.60763 1.20149C9.17499 1.85626 8.51203 2.98791 8.30047 4.05163C8.26411 4.23428 8.05529 4.34436 7.86155 4.28309C5.90471 3.66415 2.89174 3.80366 1.41091 3.92366Z" fill="#F3EED9"/>
</svg>
