<svg width="40" height="40" viewBox="0 0 40 40" fill="none" xmlns="http://www.w3.org/2000/svg">
    <path d="M38.0414 22.1692H35.9234L35.1149 19.7181C34.8495 18.9137 34.101 18.3732 33.252 18.3732C33.0446 18.3732 32.8391 18.4064 32.6413 18.4715L30.6727 19.121C30.5498 16.005 29.9917 13.1676 29.0077 10.6775C28.0774 8.3237 27.4973 7.07852 25.8966 5.49508C25.6477 5.24883 25.2463 5.25094 25 5.5C24.7537 5.74898 24.7559 6.15031 25.0049 6.39672C28.1464 9.50422 29.2518 13.6728 29.4184 19.5348L25.2466 20.9109C24.7389 15.6612 22.4593 13.0158 20.4628 12.78C19.4397 12.6588 18.5863 13.2206 18.2873 14.2099C17.6911 16.1831 16.9229 17.4492 16.2452 18.5663C15.3924 19.9718 14.6559 21.1857 14.6559 23.16C14.6559 23.5667 14.702 23.9681 14.7918 24.3594L7.865 26.6442C6.87445 25.7367 6.3118 24.4693 6.3118 23.1137C6.3118 20.1365 7.3257 17.9535 7.93008 16.9173C8.89937 15.2552 9.88789 14.5968 10.2832 14.5722C10.3394 14.5689 10.3494 14.5792 10.3554 14.5854C10.3696 14.6001 10.4421 14.6874 10.4758 14.9575C10.5291 15.3852 10.642 15.8118 10.8114 16.2257C10.9023 16.4478 11.1105 16.5995 11.3498 16.6178C11.5891 16.6357 11.818 16.518 11.9416 16.3124C12.4073 15.538 12.9383 14.7853 13.5002 13.9884C15.4503 11.2236 17.4669 8.36472 16.7376 4.52667C16.6185 3.90042 16.7624 3.43425 17.1653 3.14104C17.8937 2.61089 19.6389 2.56526 21.7498 3.71862C22.0573 3.88659 22.4423 3.77346 22.6102 3.46628C22.778 3.15901 22.6651 2.77378 22.3578 2.60589C20.0633 1.35221 17.7322 1.15995 16.419 2.11589C15.6087 2.70573 15.2795 3.64604 15.4919 4.76339C16.1208 8.07331 14.3445 10.5914 12.464 13.2576C12.1958 13.6378 11.923 14.0246 11.6573 14.4152C11.4126 13.5547 10.7713 13.2714 10.2046 13.3067C8.29422 13.4254 5.40945 17.2124 5.07602 22.1693H1.95844C0.878594 22.1692 0 23.0478 0 24.1278V32.4946C0 33.5744 0.878594 34.453 1.95844 34.453H6.18219C6.53234 34.453 6.81625 34.1691 6.81625 33.8189C6.81625 33.4688 6.53234 33.1849 6.18219 33.1849H1.95844C1.57773 33.1849 1.26805 32.8751 1.26805 32.4945V24.1278C1.26805 23.7471 1.57781 23.4374 1.95844 23.4374H5.0525C5.07633 23.8924 5.15055 24.3379 5.27156 24.7674H4.21477C3.86461 24.7674 3.5807 25.0513 3.5807 25.4014C3.5807 25.7516 3.86461 26.0355 4.21477 26.0355H5.79102C6.04695 26.5003 6.36547 26.9323 6.74055 27.3202C6.64195 27.437 6.55484 27.5649 6.48414 27.705C6.34586 27.9795 6.27695 28.2755 6.27484 28.5732H2.86977C2.51961 28.5732 2.2357 28.8571 2.2357 29.2073C2.2357 29.5574 2.51961 29.8414 2.86977 29.8414H6.58367L8.99289 37.1449C9.2582 37.9492 10.0067 38.4897 10.8556 38.4898C11.063 38.4898 11.2687 38.4567 11.4664 38.3915L32.1392 31.5724H37.8366C38.1869 31.5724 38.4707 31.2885 38.4707 30.9384C38.4707 30.5882 38.1869 30.3043 37.8366 30.3043H35.9836L36.4895 30.1374C36.9849 29.974 37.3877 29.6263 37.6236 29.1582C37.8595 28.69 37.8995 28.1593 37.7359 27.664L36.3419 23.4374H38.0416C38.4223 23.4374 38.732 23.7472 38.732 24.1278V32.4946C38.732 32.8753 38.4223 33.185 38.0416 33.185H28.8764C28.5262 33.185 28.2423 33.4689 28.2423 33.8191C28.2423 34.1692 28.5262 34.4532 28.8764 34.4532H38.0414C39.1212 34.4532 40 33.5746 40 32.4947V24.1278C40 23.0478 39.1213 22.1692 38.0414 22.1692ZM17.3294 19.2239C18.0106 18.101 18.8586 16.7035 19.5012 14.5767C19.6239 14.1708 19.8982 13.9899 20.3141 14.0392C21.5511 14.1853 23.6012 16.2958 24.0116 21.3182L16.0034 23.9598C15.9512 23.698 15.9241 23.4307 15.9241 23.1599C15.9241 21.5402 16.5136 20.5687 17.3294 19.2239ZM36.5316 28.061C36.589 28.2349 36.5745 28.4217 36.4911 28.5873C36.4077 28.7529 36.2659 28.8757 36.0922 28.933L31.8498 30.3324L31.8465 30.3335L11.0691 37.187C10.9998 37.2099 10.928 37.2214 10.8559 37.2214C10.5602 37.2214 10.2892 37.0265 10.1973 36.7474L7.64805 29.0193L7.64719 29.0169L7.57625 28.8017C7.51891 28.6279 7.53328 28.441 7.61672 28.2754C7.67859 28.1527 7.7725 28.0536 7.88773 27.9871C7.95188 27.9717 8.01406 27.9466 8.07133 27.9113L30.2571 20.5932L30.2624 20.5914L33.0387 19.6756C33.108 19.6527 33.1798 19.641 33.252 19.641C33.5477 19.641 33.8186 19.836 33.9106 20.115L34.8559 22.981C34.8591 22.9917 34.8628 23.0024 34.8665 23.0129L36.5316 28.061Z" fill="#FF4444"/>
    <path d="M34.2985 4.45241C33.6478 2.47272 32.8891 1.51038 31.9791 1.51038C31.0691 1.51038 30.3105 2.47272 29.6597 4.45241C29.2361 5.74092 28.9167 7.33576 28.9167 8.16225C28.9167 9.85076 30.2905 11.2245 31.9791 11.2245C33.6677 11.2245 35.0414 9.85076 35.0414 8.16225C35.0415 7.33584 34.7221 5.74092 34.2985 4.45241ZM31.9792 9.95654C30.9898 9.95654 30.1849 9.1517 30.1849 8.16232C30.1849 7.59576 30.4288 6.21686 30.8228 4.97709C31.3527 3.30991 31.8373 2.82678 31.9792 2.78006C32.121 2.82686 32.6056 3.30991 33.1355 4.97709C33.5296 6.21686 33.7735 7.59568 33.7735 8.16232C33.7735 9.1517 32.9685 9.95654 31.9792 9.95654Z" fill="#FF4444"/>
    <path d="M11.7415 4.75938C11.1556 2.97688 10.4627 2.11047 9.623 2.11047C8.7834 2.11047 8.09043 2.97696 7.50449 4.75938C7.1284 5.9036 6.84473 7.32195 6.84473 8.05844C6.84473 9.59039 8.09105 10.8366 9.62293 10.8366C11.1548 10.8366 12.4011 9.59031 12.4011 8.05844C12.4012 7.32188 12.1176 5.9036 11.7415 4.75938ZM9.62308 9.56875C8.79043 9.56875 8.11293 8.89125 8.11293 8.05859C8.11285 7.57063 8.31387 6.42024 8.65035 5.33961C9.07582 3.97282 9.47668 3.48594 9.62308 3.39C9.76941 3.48594 10.1703 3.97282 10.5958 5.33961C10.9322 6.42024 11.1332 7.5707 11.1332 8.05859C11.1332 8.89125 10.4558 9.56875 9.62308 9.56875Z" fill="#FF4444"/>
    <path d="M27.2439 23.4356C27.1343 23.1031 26.776 22.9224 26.4432 23.0321L21.086 24.7992C20.7534 24.9088 20.5728 25.2673 20.6824 25.5999C20.7703 25.8665 21.0182 26.0354 21.2845 26.0354C21.3503 26.0354 21.4172 26.0251 21.4832 26.0034L26.8404 24.2363C27.1729 24.1267 27.3536 23.7682 27.2439 23.4356Z" fill="#FF4444"/>
    <path d="M33.3468 26.4194C33.2372 26.0868 32.8789 25.9062 32.5461 26.0158L27.1891 27.783C26.8565 27.8926 26.6759 28.2511 26.7856 28.5837C26.8735 28.8503 27.1214 29.0192 27.3876 29.0192C27.4534 29.0192 27.5203 29.0089 27.5863 28.9872L32.9434 27.2201C33.276 27.1105 33.4566 26.7519 33.3468 26.4194Z" fill="#FF4444"/>
    <path d="M16.155 31.115C16.0453 30.7824 15.6868 30.6019 15.3542 30.7115L12.4129 31.6817C12.0803 31.7913 11.8997 32.15 12.0093 32.4824C12.0972 32.7491 12.3451 32.918 12.6113 32.918C12.6772 32.918 12.7441 32.9077 12.8101 32.8859L15.7515 31.9157C16.0841 31.806 16.2647 31.4475 16.155 31.115Z" fill="#FF4444"/>
    <path d="M23.8 5.00005C23.6422 5.00005 23.4874 4.93591 23.3758 4.82425C23.2642 4.71265 23.2 4.55785 23.2 4.40005C23.2 4.24165 23.2642 4.08745 23.3758 3.97525C23.4874 3.86371 23.6422 3.80005 23.8 3.80005C23.9578 3.80005 24.1126 3.86371 24.2242 3.97525C24.3364 4.08745 24.4 4.24225 24.4 4.40005C24.4 4.55785 24.3364 4.71205 24.2242 4.82425C24.1126 4.93591 23.9584 5.00005 23.8 5.00005Z" fill="#FF4444"/>
</svg>
